<?xml version="1.0" encoding="UTF-8"?>
<svg fill="#CDCED2" width="20px" height="20px" viewBox="0 0 20 20" version="1.1" xmlns="http://www.w3.org/2000/svg" xmlns:xlink="http://www.w3.org/1999/xlink">
    <!-- Generator: sketchtool 42 (36781) - http://www.bohemiancoding.com/sketch -->
    <title>91A6A2F9-98B5-4C08-91A1-CE40464BF2A0</title>
    <desc>Created with sketchtool.</desc>
    <defs></defs>
    <g id="Symbols" stroke="none" stroke-width="1" fill-rule="evenodd">
        <g id="Artboard" transform="translate(-42.000000, -20.000000)" fill-rule="nonzero">
            <g id="Shape" transform="translate(42.000000, 20.000000)">
                <g id="Symbols">
                    <g>
                        <g id="Artboard">
                            <g id="tag-black-shape">
                                <g id="Capa_1">
                                    <path d="M19.4912243,10.615843 L10.0622174,1.20004619 C9.72803727,0.865727483 9.27976937,0.582309469 8.71713658,0.349422633 C8.15431903,0.116489607 7.64004651,0 7.17404189,0 L1.68808346,0 C1.23085482,0 0.835242815,0.167159353 0.501155055,0.501062356 C0.167067296,0.835150115 9.27e-05,1.23076212 9.27e-05,1.68799076 L9.27e-05,7.17394919 C9.27e-05,7.63990762 0.116443739,8.15404157 0.349469143,8.71685912 C0.582494547,9.27967667 0.865958751,9.72341801 1.20013889,10.0488222 L10.6290072,19.4909931 C10.954319,19.8163048 11.3496539,19.9789376 11.8159356,19.9789376 C12.2727486,19.9789376 12.6731181,19.8163048 13.0159356,19.4909931 L19.4910396,13.0027714 C19.8163513,12.677321 19.9788456,12.2820323 19.9788456,11.8160277 C19.9788456,11.3588453 19.8163513,10.9587991 19.4912243,10.615843 Z M5.41348762,5.41344111 C5.08360309,5.74314088 4.68591256,5.90808314 4.21990794,5.90808314 C3.75408808,5.90808314 3.35621279,5.74314088 3.02651302,5.41344111 C2.69681325,5.08369515 2.53200956,4.68600462 2.53200956,4.22004619 C2.53200956,3.75404157 2.69681325,3.35621247 3.02651302,3.02665127 C3.35625898,2.69690531 3.75408808,2.53196305 4.21990794,2.53196305 C4.68591256,2.53196305 5.08374166,2.69690531 5.41348762,3.02665127 C5.74304882,3.35621247 5.90799108,3.75408776 5.90799108,4.22004619 C5.90799108,4.68600462 5.74323358,5.08369515 5.41348762,5.41344111 Z" id="Shape" transform="translate(9.989469, 9.989469) scale(-1, 1) translate(-9.989469, -9.989469) "></path>
                                </g>
                            </g>
                        </g>
                    </g>
                </g>
            </g>
        </g>
    </g>
</svg>