<?xml version="1.0" encoding="UTF-8"?>
<svg width="46px" height="42px" viewBox="0 0 46 42" version="1.1" xmlns="http://www.w3.org/2000/svg" xmlns:xlink="http://www.w3.org/1999/xlink">
    <!-- Generator: sketchtool 42 (36781) - http://www.bohemiancoding.com/sketch -->
    <title>6CAE15E9-63AE-4E6F-AAC6-E1E682062959</title>
    <desc>Created with sketchtool.</desc>
    <defs>
        <polygon id="path-1" points="45.3906667 41.0350468 45.3906667 0.478522367 0.000266666667 0.478522367 0.000266666667 41.0350468 45.3906667 41.0350468"></polygon>
    </defs>
    <g id="Symbols" stroke="none" stroke-width="1" fill="none" fill-rule="evenodd">
        <g id="Photo" transform="translate(-12.000000, -14.000000)">
            <g id="Page-1" transform="translate(12.000000, 14.000000)">
                <path d="M22.6956,15.9834413 C18.6836,15.9834413 15.4322667,19.2119781 15.4322667,23.1937077 C15.4322667,27.1767611 18.6836,30.4039742 22.6956,30.4039742 C26.7062667,30.4039742 29.9582667,27.1767611 29.9582667,23.1937077 C29.9582667,19.2119781 26.7062667,15.9834413 22.6956,15.9834413" id="Fill-1" fill="#FFFFFF"></path>
                <g id="Group-5" transform="translate(0.000000, 0.183665)">
                    <mask id="mask-2" fill="white">
                        <use xlink:href="#path-1"></use>
                    </mask>
                    <g id="Clip-4"></g>
                    <path d="M22.6956,34.2755048 C16.4282667,34.2755048 11.3482667,29.232157 11.3482667,23.0100425 C11.3482667,16.7872662 16.4282667,11.7439184 22.6956,11.7439184 C28.9622667,11.7439184 34.0429333,16.7872662 34.0429333,23.0100425 C34.0429333,29.232157 28.9622667,34.2755048 22.6956,34.2755048 L22.6956,34.2755048 Z M15.8869333,0.478456181 L11.7376,4.98437633 L4.5396,4.98437633 C2.03226667,4.98437633 0.000266666667,7.00171544 0.000266666667,9.49095835 L0.000266666667,36.5284648 C0.000266666667,39.0177077 2.03226667,41.0350468 4.5396,41.0350468 L40.8516,41.0350468 C43.3582667,41.0350468 45.3909333,39.0177077 45.3909333,36.5284648 L45.3909333,9.49095835 C45.3909333,7.00171544 43.3582667,4.98437633 40.8516,4.98437633 L33.6529333,4.98437633 L29.5042667,0.478456181 L15.8869333,0.478456181 Z" id="Fill-3" fill="#FFFFFF" mask="url(#mask-2)"></path>
                </g>
            </g>
        </g>
    </g>
</svg>