<svg width="16" height="16" viewBox="0 0 16 16" xmlns="http://www.w3.org/2000/svg"><title>EF4752D1-E58C-4432-A855-874AF94B7E5A</title><path d="M6.6 8.01L.378 14.233c-.422.426-.493 1.061-.069 1.486.424.424 1.06.353 1.483-.072l6.221-6.222 6.216 6.222c.423.425 1.06.494 1.487.067.426-.426.349-1.055-.074-1.48L9.427 8.01l6.215-6.216c.423-.426.496-1.056.072-1.483-.424-.426-1.063-.356-1.485.07L8.013 6.597 1.792.382C1.299-.114.732-.115.309.31c-.422.425-.424.989.07 1.485l6.22 6.216z" fill-rule="nonzero" fill="#C2C8D0"/></svg>