<svg width="16" height="16" viewBox="0 0 16 16" xmlns="http://www.w3.org/2000/svg">
  <title>0CCB736A-15AE-41C9-9A08-9B6988B912A8</title>
  <path d="M6.6 8.01L.378 14.23c-.422.426-.493 1.061-.069 1.485.424.424 1.06.354 1.483-.072l6.221-6.22 6.216 6.22c.423.425 1.06.494 1.487.068.426-.426.349-1.055-.074-1.48L9.427 8.008l6.215-6.214c.423-.426.496-1.056.072-1.483-.424-.426-1.063-.356-1.485.07L8.013 6.596 1.792.382C1.299-.114.732-.115.309.31c-.422.425-.424.989.07 1.485l6.22 6.214z" fill-rule="nonzero" fill="#FFF"/>
</svg>