<?xml version="1.0" encoding="UTF-8"?>
<svg  fill="#CDCED2" width="18px" height="19px" viewBox="0 0 18 19" version="1.1" xmlns="http://www.w3.org/2000/svg" xmlns:xlink="http://www.w3.org/1999/xlink">
    <!-- Generator: sketchtool 42 (36781) - http://www.bohemiancoding.com/sketch -->
    <title>4C43599D-D77F-4125-8BD8-257E4FD292B2</title>
    <desc>Created with sketchtool.</desc>
    <defs></defs>
    <g id="Symbols" stroke="none" stroke-width="1" fill-rule="evenodd">
        <g id="Email" transform="translate(-9.000000, -9.000000)">
            <path d="M17.8529946,15.6206897 C19.0181488,15.6206897 19.7477314,16.5898367 19.7477314,18.1578947 C19.7477314,19.7259528 19.0181488,20.6950998 17.8421053,20.6950998 C16.6987296,20.6950998 16.0127042,19.7368421 16.0127042,18.1578947 C16.0127042,16.5680581 16.6987296,15.6206897 17.8529946,15.6206897 Z M18.2123412,9 C12.7785844,9 9,12.6805808 9,18.0816697 C9,23.7114338 12.876588,27.1633394 18.3865699,27.1633394 C19.5626134,27.1633394 20.6733212,27.0108893 21.522686,26.7604356 L21.522686,25.0181488 C20.9019964,25.246824 19.7150635,25.399274 18.5499093,25.399274 C14.0635209,25.399274 11.0036298,22.7205082 11.0036298,18.1361162 C11.0036298,13.7586207 13.9437387,10.7313975 18.1361162,10.7313975 C22.2631579,10.7313975 24.9963702,13.2903811 24.9963702,17.2540835 C24.9963702,19.5735027 24.2558984,20.9346642 23.1887477,20.9346642 C22.5027223,20.9346642 22.154265,20.4555354 22.154265,19.7041742 L22.154265,13.8784029 L19.9437387,13.8784029 L19.9437387,15.185118 L19.7912886,15.185118 C19.3666062,14.2268603 18.3865699,13.6388385 17.2105263,13.6388385 C15.0326679,13.6388385 13.5408348,15.446461 13.5408348,18.092559 C13.5408348,20.8584392 15.0544465,22.6987296 17.3194192,22.6987296 C18.5825771,22.6987296 19.4972777,22.1107078 19.9437387,21.0217786 L20.0961887,21.0217786 C20.3357532,22.0780399 21.3702359,22.7313975 22.7205082,22.7313975 C25.3774955,22.7313975 27,20.5208711 27,17.0907441 C27,12.2450091 23.3738657,9 18.2123412,9 Z" id="@"></path>
        </g>
    </g>
</svg>