<svg xmlns="http://www.w3.org/2000/svg" width="12" height="12" viewBox="0 0 12 12">
    <path fill="#C2C8CF" fill-rule="nonzero" d="M5.507.268a.459.459 0 0 1 .822 0l1.473 2.986a.458.458 0 0 0 .345.25l3.296.479a.458.458 0 0 1 .253.781L9.312 7.09a.459.459 0 0 0-.132.405l.563 3.282a.459.459 0 0 1-.665.484L6.13 9.71a.458.458 0 0 0-.426 0l-2.947 1.55a.459.459 0 0 1-.665-.484l.563-3.282a.458.458 0 0 0-.132-.405L.138 4.764a.458.458 0 0 1 .254-.781l3.296-.479a.458.458 0 0 0 .345-.25L5.507.268z"/>
</svg>
