<?xml version="1.0" encoding="UTF-8"?>
<svg fill="#CDCED2" width="22px" height="19px" viewBox="0 0 22 19" version="1.1" xmlns="http://www.w3.org/2000/svg" xmlns:xlink="http://www.w3.org/1999/xlink">
    <!-- Generator: sketchtool 42 (36781) - http://www.bohemiancoding.com/sketch -->
    <title>1F419935-66D5-4A03-B433-B55B1747BA59</title>
    <desc>Created with sketchtool.</desc>
    <defs></defs>
    <g id="Symbols" stroke="none" stroke-width="1" fill-rule="evenodd">
        <g id="Reverse" transform="translate(-7.000000, -9.000000)">
            <path d="M24.7530967,18.2777252 C24.7530967,14.4517981 21.7478155,11.3502715 18.0406133,11.3502715 C16.3693848,11.3502715 14.7958256,11.9816548 13.5742163,13.1062811 L12.2975454,11.6292695 C13.8672309,10.1842005 15.8939248,9.37099899 18.0406133,9.37099899 C22.8070161,9.37099899 26.670949,13.3586761 26.670949,18.2777252 L28.9084435,18.2777252 L25.7120228,22.2362701 L22.5156022,18.2777252 L24.7530967,18.2777252 Z M11.32813,18.2777252 C11.32813,22.1036522 14.3334112,25.2051788 18.0406133,25.2051788 C19.7118419,25.2051788 21.2854011,24.5737955 22.5070103,23.4491692 L23.7836813,24.9261808 C22.2139957,26.3712498 20.1873019,27.1844513 18.0406133,27.1844513 C13.2742106,27.1844513 9.41027766,23.1967742 9.41027766,18.2777252 L7.17278323,18.2777252 L10.3692038,14.3191802 L13.5656245,18.2777252 L11.32813,18.2777252 Z" id="Combined-Shape"></path>
        </g>
    </g>
</svg>