<svg width="30" height="30" viewBox="0 0 30 30" xmlns="http://www.w3.org/2000/svg"><title>E2B5ECB3-1EE0-434F-9F09-A0AD70150D1C</title><g fill-rule="nonzero" fill="#FFF"><path d="M8.188 16.315a14.25 14.25 0 0 0-1.76-.107C3.215 16.208 0 17.26 0 19.363v1.578h5.357v-.949c0-1.546 1.111-2.8 2.831-3.677zm1.455-4.81c0 1.578-1.34 3.681-3.214 3.681-1.875 0-3.215-1.94-3.215-3.68 0-1.742 1.44-3.156 3.215-3.156 1.774 0 3.214 1.578 3.214 3.155z"/><path d="M19.286 9.769c0 2.134-1.786 4.98-4.286 4.98-2.5 0-4.286-2.625-4.286-4.98 0-2.357 1.92-4.269 4.286-4.269 2.366 0 4.286 2.134 4.286 4.269zM6.429 20.229c0-2.844 4.285-4.269 8.571-4.269s8.571 1.423 8.571 4.27v2.134H6.43v-2.135z"/><path d="M24.643 20.94H30v-1.577c0-2.102-3.214-3.155-6.429-3.155-.592 0-1.185.036-1.758.107 1.72.877 2.83 2.13 2.83 3.677v.949zm-4.286-9.435c0-1.577 1.44-3.155 3.214-3.155 1.775 0 3.215 1.414 3.215 3.155 0 1.74-1.34 3.681-3.215 3.681-1.875 0-3.214-2.103-3.214-3.68z"/></g></svg>