<svg width="30" height="30" viewBox="0 0 36 36" xmlns="http://www.w3.org/2000/svg"><title>8C385037-BF94-48F9-99A2-2CC1E13EB50D</title><path d="M25.111 17.67a1.201 1.201 0 0 0-.882-.364h-.415v-2.492c0-1.592-.571-2.959-1.713-4.1C20.959 9.57 19.592 9 18 9s-2.96.571-4.101 1.713c-1.142 1.142-1.713 2.509-1.713 4.101v2.492h-.415c-.346 0-.64.12-.883.363a1.201 1.201 0 0 0-.363.883v7.475c0 .346.121.64.363.882.243.242.537.364.883.364h12.458c.346 0 .64-.121.883-.364.242-.242.363-.536.363-.882v-7.475a1.2 1.2 0 0 0-.364-.883zm-3.789-.364h-6.644v-2.492c0-.917.324-1.7.973-2.349A3.201 3.201 0 0 1 18 11.492a3.2 3.2 0 0 1 2.349.973c.649.649.973 1.432.973 2.349v2.492z" fill-rule="nonzero" fill="#CDCECF"/></svg>
