<svg width="30" height="30" viewBox="0 0 36 36" xmlns="http://www.w3.org/2000/svg" xmlns:xlink="http://www.w3.org/1999/xlink"><title>FA99F426-E49D-49DD-8715-7A773170BA94</title><defs><path d="M12.039 15.066v7.753a.711.711 0 0 0 1.422 0V15.06l1.519 1.793a.709.709 0 0 0 1.002.083.71.71 0 0 0 .083-1.003l-2.642-3.117a1.115 1.115 0 0 0-.157-.17.77.77 0 0 0-.516-.208.766.766 0 0 0-.513.21c-.07.061-.125.126-.16.172l-2.643 3.118a.712.712 0 0 0 1.085.92l1.52-1.792z" id="a"/><mask id="b" x="-1" y="-1" width="8.968" height="13.092"><path fill="#fff" d="M8.266 11.438h8.968V24.53H8.266z"/><use xlink:href="#a"/></mask></defs><g fill="none" fill-rule="evenodd"><rect fill="#CDCECF" x="11" y="11" width="16" height="14" rx="3"/><g transform="rotate(-90 12.75 17.984)"><use fill="#CDCECF" xlink:href="#a"/><use stroke="#FFF" mask="url(#b)" stroke-width="2" xlink:href="#a"/></g></g></svg>
