<?xml version="1.0" encoding="UTF-8"?>
<svg fill="#CDCED2" width="19px" height="19px" viewBox="0 0 19 19" version="1.1" xmlns="http://www.w3.org/2000/svg" xmlns:xlink="http://www.w3.org/1999/xlink">
    <!-- Generator: sketchtool 42 (36781) - http://www.bohemiancoding.com/sketch -->
    <title>2599B333-7D56-4FEC-B7FD-7DB2237B24CF</title>
    <desc>Created with sketchtool.</desc>
    <defs></defs>
    <g id="Symbols" stroke="none" stroke-width="1" fill-rule="evenodd">
        <g id="Artboard" transform="translate(-13.000000, -20.000000)" fill-rule="nonzero">
            <g id="call-answer" transform="translate(13.000000, 20.000000)">
                <g id="Capa_1">
                    <path d="M18.5248911,14.9758653 L15.5984011,12.0490487 C15.0154986,11.4684871 14.0502006,11.4861261 13.4469914,12.089553 L11.9726132,13.5636046 C11.8794642,13.5122665 11.7830487,13.4586418 11.6816791,13.4017507 C10.7506246,12.8858653 9.47631805,12.1787822 8.13537536,10.8368596 C6.79045845,9.49210602 6.08272206,8.21583954 5.56525788,7.28418625 C5.5106533,7.18548424 5.45833524,7.09032092 5.40667049,6.99994842 L6.39619484,6.01189398 L6.88268195,5.52480802 C7.48681662,4.92051003 7.50347564,3.95548424 6.9219341,3.37323496 L3.99544413,0.446091691 C3.41390258,-0.135340974 2.44816905,-0.117702006 1.84403438,0.486595989 L1.01924928,1.31611748 L1.04178797,1.33849284 C0.765226361,1.69138109 0.534123209,2.09838395 0.362143266,2.5372894 C0.203610315,2.95507163 0.104908309,3.35374499 0.0597765043,3.75323496 C-0.326647564,6.9567765 1.13727794,9.88457307 5.11018338,13.857533 C10.6019456,19.348914 15.0275845,18.9340716 15.21851,18.9138195 C15.6343324,18.8641146 16.0328424,18.7647593 16.4378309,18.6074785 C16.8729255,18.4375129 17.2796562,18.2067364 17.6323266,17.9307736 L17.6503467,17.9467794 L18.4859112,17.1285817 C19.0887937,16.5243926 19.1061605,15.5590401 18.5248911,14.9758653 Z" id="Shape"></path>
                </g>
            </g>
        </g>
    </g>
</svg>