<svg width="19" height="19" viewBox="0 0 19 19" xmlns="http://www.w3.org/2000/svg"><title>314C1D37-C63F-4A5E-92DC-928A1EDDB0AF</title><path d="M18.94 8.445c-.03-.267-.34-.467-.61-.467a2.11 2.11 0 0 1-1.967-1.302 2.116 2.116 0 0 1 .53-2.35c.205-.186.23-.499.059-.716a9.4 9.4 0 0 0-1.505-1.52.529.529 0 0 0-.722.058c-.567.628-1.584.86-2.37.533A2.11 2.11 0 0 1 11.072.618a.527.527 0 0 0-.466-.555A9.485 9.485 0 0 0 8.468.058a.529.529 0 0 0-.47.543 2.114 2.114 0 0 1-1.3 2.027c-.777.317-1.787.086-2.353-.535a.53.53 0 0 0-.717-.06 9.436 9.436 0 0 0-1.536 1.519.529.529 0 0 0 .056.722c.661.599.875 1.551.531 2.37C2.351 7.425 1.541 7.93.612 7.93a.516.516 0 0 0-.548.466 9.517 9.517 0 0 0-.005 2.16c.03.269.351.468.623.468.828-.022 1.622.49 1.955 1.301.332.81.119 1.754-.531 2.35a.528.528 0 0 0-.058.716 9.435 9.435 0 0 0 1.503 1.52c.218.175.535.15.723-.057.569-.629 1.586-.862 2.369-.533a2.107 2.107 0 0 1 1.285 2.062.528.528 0 0 0 .466.555 9.443 9.443 0 0 0 2.137.006.529.529 0 0 0 .47-.544 2.112 2.112 0 0 1 1.3-2.026c.782-.32 1.788-.086 2.353.535a.53.53 0 0 0 .717.06 9.458 9.458 0 0 0 1.537-1.52.527.527 0 0 0-.056-.722 2.105 2.105 0 0 1-.533-2.37 2.127 2.127 0 0 1 1.944-1.287l.117.003a.529.529 0 0 0 .556-.466 9.509 9.509 0 0 0 .005-2.16zM9.516 13.45c-2.356 0-3.929-1.575-3.929-3.929 0-2.353 1.573-3.929 3.93-3.929 2.355 0 3.928 1.576 3.928 3.93 0 2.353-1.573 3.928-3.929 3.928z" fill="#9DA0A4" fill-rule="evenodd"/></svg>