<?xml version="1.0" encoding="UTF-8"?>
<svg width="36px" height="36px" viewBox="0 0 36 36" version="1.1" xmlns="http://www.w3.org/2000/svg" xmlns:xlink="http://www.w3.org/1999/xlink">
    <!-- Generator: Sketch 43.2 (39069) - http://www.bohemiancoding.com/sketch -->
    <title>Linkedin</title>
    <desc>Created with Sketch.</desc>
    <defs></defs>
    <g id="Symbols" stroke="none" stroke-width="1" fill="none" fill-rule="evenodd">
        <g id="Linkedin" fill-rule="nonzero">
            <g id="Linkedin-Logo">
                <circle id="Oval" fill="#007AB9" cx="18" cy="18" r="18"></circle>
                <path d="M28.5667965,18.8735575 L28.5667965,26.2417699 L24.2949027,26.2417699 L24.2949027,19.3673628 C24.2949027,17.6412743 23.6781239,16.4625133 22.1313982,16.4625133 C20.9510442,16.4625133 20.2498407,17.2561062 19.940177,18.024531 C19.8277168,18.2991504 19.7987257,18.6804956 19.7987257,19.0656637 L19.7987257,26.2414513 L15.5265133,26.2414513 C15.5265133,26.2414513 15.5838584,14.5984779 15.5265133,13.3932743 L19.7990442,13.3932743 L19.7990442,15.2139823 C19.7904425,15.2283186 19.7783363,15.2423363 19.7706903,15.2560354 L19.7990442,15.2560354 L19.7990442,15.2139823 C20.3667611,14.3404248 21.3792212,13.0915752 23.6491327,13.0915752 C26.4596814,13.0915752 28.5667965,14.9278938 28.5667965,18.8735575 L28.5667965,18.8735575 Z M11.0574159,7.2 C9.5960708,7.2 8.64,8.15925664 8.64,9.41957522 C8.64,10.6531327 9.56835398,11.6401062 11.0013451,11.6401062 L11.0290619,11.6401062 C12.5190796,11.6401062 13.4455221,10.6531327 13.4455221,9.41957522 C13.4171681,8.15925664 12.5190796,7.2 11.0574159,7.2 L11.0574159,7.2 Z M8.8939115,26.2417699 L13.164531,26.2417699 L13.164531,13.3932743 L8.8939115,13.3932743 L8.8939115,26.2417699 Z" id="Shape" fill="#F1F2F2"></path>
            </g>
        </g>
    </g>
</svg>