<?xml version="1.0" encoding="UTF-8"?>
<svg width="36px" height="36px" viewBox="0 0 36 36" version="1.1" xmlns="http://www.w3.org/2000/svg" xmlns:xlink="http://www.w3.org/1999/xlink">
    <!-- Generator: Sketch 43.2 (39069) - http://www.bohemiancoding.com/sketch -->
    <title>URL</title>
    <desc>Created with Sketch.</desc>
    <defs></defs>
    <g id="Symbols" stroke="none" stroke-width="1" fill="none" fill-rule="evenodd">
        <g id="URL" fill="#C2C8D0">
            <path d="M0,18 C0,8.05887401 8.05887401,0 18,0 C27.941126,0 36,8.05887401 36,18 C36,27.941126 27.941126,36 18,36 C8.05887401,36 0,27.941126 0,18 Z M14.2499172,19.1999364 L21.7500828,19.1999364 L21.7500828,16.8000636 L14.2499172,16.8000636 L14.2499172,19.1999364 Z M21.7497516,12 L19.2499172,12 L19.2499172,14.3998728 L21.7497516,14.3998728 C23.8746771,14.3998728 25.4998344,15.9600445 25.4998344,18 C25.4998344,20.0399555 23.8746771,21.6001272 21.7497516,21.6001272 L19.2499172,21.6001272 L19.2499172,24 L21.7497516,24 C25.2497847,24 28,21.3600763 28,18 C28,14.6399237 25.2497847,12 21.7497516,12 Z M10.5001656,18 C10.5001656,15.9600445 12.1249917,14.3998728 14.2499172,14.3998728 L16.7500828,14.3998728 L16.7500828,12 L14.2499172,12 C10.7502153,12 8,14.6399237 8,18 C8,21.3600763 10.7502153,24 14.2499172,24 L16.7500828,24 L16.7500828,21.6001272 L14.2499172,21.6001272 C12.1249917,21.6001272 10.5001656,20.0399555 10.5001656,18 Z" id="Combined-Shape"></path>
        </g>
    </g>
</svg>