<?xml version="1.0" encoding="UTF-8"?>
<svg width="36px" height="36px" viewBox="0 0 36 36" version="1.1" xmlns="http://www.w3.org/2000/svg" xmlns:xlink="http://www.w3.org/1999/xlink">
    <!-- Generator: Sketch 43.2 (39069) - http://www.bohemiancoding.com/sketch -->
    <title>Tumblr</title>
    <desc>Created with Sketch.</desc>
    <defs></defs>
    <g id="Symbols" stroke="none" stroke-width="1" fill="none" fill-rule="evenodd">
        <g id="Tumblr" fill-rule="nonzero">
            <g id="Group">
                <circle id="Oval" fill="#395976" cx="18.0003186" cy="18" r="18"></circle>
                <path d="M18.7325666,12.1163894 L18.7325666,7.31660177 L15.6343365,7.31660177 C15.5645666,7.49182301 15.5301595,7.70559292 15.5301595,7.91904425 C15.4976639,8.02322124 15.4594338,8.09872566 15.4594338,8.20258407 C15.1418055,9.98251327 14.2172745,11.2240354 12.6514338,11.9023009 C12.1866197,12.116708 11.7600356,12.1492035 11.3000002,12.116708 L11.3000002,15.9862301 L13.576602,15.9862301 C13.6135577,21.431469 13.6135577,24.2385133 13.6135577,24.3812389 L13.6135577,24.7039646 C13.8993276,27.079646 15.1414869,28.5033982 17.3464073,29.0386195 C18.2336639,29.2845664 19.1922834,29.3941593 20.1544073,29.3941593 C21.3968851,29.3559292 22.6062303,29.1427965 23.815894,28.7547611 L23.815894,24.2009204 C23.1092745,24.4143717 22.464779,24.5940531 21.8961064,24.7699115 C20.7950798,25.0916814 19.8705489,24.8785487 19.1202834,24.167469 C19.0495577,24.0588319 18.9447436,23.9157876 18.9077878,23.7733805 C18.8029736,23.2050265 18.7363896,22.6016283 18.7363896,22.0335929 L18.7363896,15.9859115 L23.6734869,15.9859115 L23.6734869,12.1163894 L18.7325666,12.1163894 Z" id="Shape" fill="#F1F2F2"></path>
            </g>
        </g>
    </g>
</svg>