<?xml version="1.0" encoding="UTF-8"?>
<svg width="36px" height="36px" viewBox="0 0 36 36" version="1.1" xmlns="http://www.w3.org/2000/svg" xmlns:xlink="http://www.w3.org/1999/xlink">
    <!-- Generator: Sketch 43.2 (39069) - http://www.bohemiancoding.com/sketch -->
    <title>Vkontakte</title>
    <desc>Created with Sketch.</desc>
    <defs></defs>
    <g id="Symbols" stroke="none" stroke-width="1" fill="none" fill-rule="evenodd">
        <g id="Vkontakte">
            <g id="vk">
                <g id="Capa_1">
                    <g>
                        <g id="Group">
                            <circle id="XMLID_11_" fill="#4D76A1" fill-rule="nonzero" cx="18" cy="18" r="18"></circle>
                            <path d="M17.3016005,25.7103717 L18.7043262,25.7103717 C18.7043262,25.7103717 19.128043,25.6638584 19.3443616,25.4306549 C19.5434767,25.2165664 19.537105,24.8145133 19.537105,24.8145133 C19.537105,24.8145133 19.5097067,22.9323186 20.3832643,22.6551504 C21.244397,22.3821239 22.3502023,24.4742655 23.5222731,25.2786903 C24.408574,25.8875044 25.0820607,25.7540177 25.0820607,25.7540177 L28.2159722,25.7103717 C28.2159722,25.7103717 29.8554059,25.6093805 29.0780607,24.3203894 C29.0143439,24.2149381 28.6253528,23.3668673 26.7479368,21.6242124 C24.7829103,19.8003186 25.0460607,20.0953274 27.4131404,16.9403894 C28.8547333,15.0190088 29.4310519,13.8459823 29.2510519,13.3435752 C29.0793351,12.8650619 28.0190873,12.9915398 28.0190873,12.9915398 L24.4904501,13.0135221 C24.4904501,13.0135221 24.2288926,12.9778407 24.0348749,13.0938053 C23.8453174,13.2075398 23.7232997,13.4726018 23.7232997,13.4726018 C23.7232997,13.4726018 23.1648218,14.9594336 22.4199722,16.2238938 C20.8487156,18.8920354 20.2204678,19.0328496 19.963689,18.8671858 C19.3663439,18.4810619 19.5154413,17.316 19.5154413,16.4883186 C19.5154413,13.9026903 19.9076182,12.8246018 18.7517952,12.5455221 C18.36822,12.4528142 18.0859545,12.391646 17.1050342,12.3817699 C15.8459899,12.368708 14.7803262,12.3855929 14.176928,12.6812389 C13.775512,12.8778053 13.4658483,13.3158584 13.6544501,13.3410265 C13.8876536,13.3722478 14.415866,13.4834336 14.6959014,13.8647788 C15.0574944,14.3566726 15.044751,15.4615221 15.044751,15.4615221 C15.044751,15.4615221 15.2524678,18.5052743 14.5595474,18.8834336 C14.0839014,19.1427611 13.4314413,18.6132743 12.0306271,16.1926726 C11.3128572,14.9527434 10.7709457,13.5821947 10.7709457,13.5821947 C10.7709457,13.5821947 10.6664501,13.3260531 10.4800784,13.1890619 C10.2538837,13.0230796 9.93784833,12.9701947 9.93784833,12.9701947 L6.58475099,12.992177 C6.58475099,12.992177 6.08138816,13.0061947 5.89660939,13.2250619 C5.73222001,13.4197168 5.88354745,13.8224071 5.88354745,13.8224071 C5.88354745,13.8224071 8.50868019,19.9640708 11.4810696,23.059115 C14.2065563,25.8967434 17.3016005,25.7103717 17.3016005,25.7103717 L17.3016005,25.7103717 Z" id="Shape" fill="#FFFFFF"></path>
                        </g>
                    </g>
                </g>
            </g>
        </g>
    </g>
</svg>