<?xml version="1.0" encoding="UTF-8"?>
<svg width="36px" height="36px" viewBox="0 0 36 36" version="1.1" xmlns="http://www.w3.org/2000/svg" xmlns:xlink="http://www.w3.org/1999/xlink">
    <!-- Generator: Sketch 43.2 (39069) - http://www.bohemiancoding.com/sketch -->
    <title>Twitter</title>
    <desc>Created with Sketch.</desc>
    <defs></defs>
    <g id="Symbols" stroke="none" stroke-width="1" fill="none" fill-rule="evenodd">
        <g id="Twitter" fill-rule="nonzero">
            <g id="twitter">
                <g id="Capa_1">
                    <g>
                        <g id="Group">
                            <circle id="Oval" fill="#55ACEE" cx="18.0003186" cy="18" r="18"></circle>
                            <path d="M29.0220175,12.8440354 C28.2561414,13.183646 27.432283,13.4133451 26.568283,13.5159292 C27.4504423,12.9873982 28.1274334,12.151115 28.4469733,11.1529912 C27.6215219,11.6426549 26.7068671,11.9978761 25.7342299,12.1893451 C24.9549733,11.3594336 23.8447078,10.8407788 22.6152918,10.8407788 C20.2564954,10.8407788 18.343398,12.7538761 18.343398,15.1126726 C18.343398,15.4475044 18.3813095,15.7734159 18.4545839,16.0862655 C14.904283,15.908177 11.7563538,14.2075752 9.64923875,11.6222655 C9.28159273,12.2530619 9.07069007,12.9873982 9.07069007,13.7701593 C9.07069007,15.2518938 9.82541574,16.56 10.9710441,17.3258761 C10.2711149,17.3038938 9.61196441,17.1117876 9.036283,16.7909735 C9.03596441,16.8091327 9.03596441,16.827292 9.03596441,16.8451327 C9.03596441,18.9149735 10.5090972,20.6413805 12.4629733,21.0335575 C12.1048848,21.1316814 11.7267255,21.1836106 11.3377343,21.1836106 C11.0618405,21.1836106 10.7945485,21.1571681 10.5339467,21.107469 C11.0774511,22.8042478 12.6547609,24.0393982 14.5245308,24.0741239 C13.0622299,25.2200708 11.2204954,25.9027965 9.21851308,25.9027965 C8.87444229,25.9027965 8.53355733,25.8827257 8.19999981,25.8429027 C10.0895219,27.0554336 12.3355396,27.7623717 14.7478582,27.7623717 C22.6054157,27.7623717 26.9024777,21.2530619 26.9024777,15.6074336 C26.9024777,15.4223363 26.8983361,15.2378761 26.8900529,15.0550088 C27.7253803,14.452885 28.4495219,13.700708 29.0220175,12.8440354 L29.0220175,12.8440354 Z" id="Shape" fill="#F1F2F2"></path>
                        </g>
                    </g>
                </g>
            </g>
        </g>
    </g>
</svg>