<?xml version="1.0" encoding="UTF-8"?>
<svg width="36px" height="36px" viewBox="0 0 36 36" version="1.1" xmlns="http://www.w3.org/2000/svg" xmlns:xlink="http://www.w3.org/1999/xlink">
    <!-- Generator: Sketch 43.2 (39069) - http://www.bohemiancoding.com/sketch -->
    <title>Google Plus</title>
    <desc>Created with Sketch.</desc>
    <defs></defs>
    <g id="Symbols" stroke="none" stroke-width="1" fill="none" fill-rule="evenodd">
        <g id="Google-Plus" fill-rule="nonzero">
            <g id="Group-2">
                <circle id="XMLID_30_" fill="#DC4E41" cx="18" cy="18" r="18"></circle>
                <path d="M5.76452563,18.1794098 C5.62020705,14.3796576 8.94845484,10.868224 12.7520301,10.8226665 C14.6906141,10.6573213 16.5766318,11.4101355 18.0437115,12.6379585 C17.4419062,13.2996576 16.8295876,13.9537107 16.1755345,14.5660293 C14.8839947,13.7813567 13.3289858,13.1833744 11.8195345,13.7144541 C9.38491501,14.407693 7.91050793,17.2822771 8.81146369,19.6640116 C9.55758758,22.151516 12.5831805,23.5166488 14.9544017,22.471693 C16.1822247,22.032047 16.9917469,20.899162 17.3469681,19.6818523 C15.9397823,19.6538169 14.5322778,19.671339 13.125092,19.6324718 C13.1215876,18.7952328 13.1180832,17.9611797 13.1215876,17.1239408 C15.4682778,17.1204364 17.8184725,17.1134275 20.1686672,17.1344541 C20.3129858,19.1858169 20.0103309,21.3811797 18.676738,23.0276222 C16.8506141,25.3778169 13.4768088,26.0675514 10.732207,25.1455691 C7.81939289,24.1888611 5.7011274,21.2543833 5.76452563,18.1794098 Z" id="Shape" fill="#FFFFFF"></path>
                <path d="M25.1617699,15.12 L27.2548673,15.12 C27.2586903,15.8202478 27.2653805,16.524 27.2692035,17.2239292 C27.9691327,17.2309381 28.672885,17.2344425 29.3731327,17.2379469 L29.3731327,19.3348673 C28.6732035,19.3383717 27.9694513,19.3418761 27.2692035,19.3453805 C27.2621947,20.0491327 27.2586903,20.7490619 27.2548673,21.4528142 C26.5549381,21.4493097 25.8543717,21.4528142 25.1579469,21.4528142 C25.1512566,20.7490619 25.1512566,20.0491327 25.1439292,19.348885 C24.444,19.3415575 23.7402478,19.3383717 23.04,19.3345487 L23.04,17.2376283 C23.7402478,17.2341239 24.4404956,17.2306195 25.1439292,17.2236106 C25.1474336,16.524 25.1544425,15.8202478 25.1617699,15.12 Z" id="Shape" fill="#FFFFFF"></path>
            </g>
        </g>
    </g>
</svg>