<?xml version="1.0" encoding="UTF-8"?>
<svg width="36px" height="36px" viewBox="0 0 36 36" version="1.1" xmlns="http://www.w3.org/2000/svg" xmlns:xlink="http://www.w3.org/1999/xlink">
    <!-- Generator: Sketch 43.2 (39069) - http://www.bohemiancoding.com/sketch -->
    <title>Instagram</title>
    <desc>Created with Sketch.</desc>
    <defs>
        <radialGradient cx="1.82641464%" cy="90.8289542%" fx="1.82641464%" fy="90.8289542%" r="144.580672%" gradientTransform="translate(0.018264,0.908290),scale(0.999993,1.000000),translate(-0.018264,-0.908290)" id="radialGradient-1">
            <stop stop-color="#FED576" offset="0%"></stop>
            <stop stop-color="#F47133" offset="26.34%"></stop>
            <stop stop-color="#BC3081" offset="60.91%"></stop>
            <stop stop-color="#4C63D2" offset="100%"></stop>
        </radialGradient>
    </defs>
    <g id="Symbols" stroke="none" stroke-width="1" fill="none" fill-rule="evenodd">
        <g id="Instagram">
            <g id="instagram">
                <g id="Symbol" transform="translate(7.351579, 7.048421)"></g>
                <g id="Group-2" fill-rule="nonzero">
                    <path d="M0.0606315789,17.5149474 L0.0606315789,18.4850526 C0.310736842,27.7616842 7.78357895,35.2117895 16.6736842,35.9090526 L19.4096842,35.9090526 C28.3528421,35.2042105 35.6968421,27.6858947 35.9393684,18.4698947 L35.9393684,17.5149474 C35.6968421,8.13221053 28.0951579,0.522947368 18.9397895,0.0530526316 C9.08715789,-0.447157895 0.333473684,7.45768421 0.0606315789,17.5149474 Z" id="Shape" fill="url(#radialGradient-1)"></path>
                    <path d="M18.0833684,9.04168421 C20.9406316,9.04168421 21.2816842,9.04926316 22.4109474,9.10231579 C23.4568421,9.14778947 24.0176842,9.32968421 24.3966316,9.47368421 C24.8968421,9.67073684 25.2530526,9.90568421 25.6244211,10.2846316 C25.9957895,10.6635789 26.2307368,11.0273684 26.4277895,11.5351579 C26.5717895,11.9216842 26.7461053,12.4976842 26.7991579,13.5587368 C26.8522105,14.7107368 26.8597895,15.0517895 26.8597895,17.9621053 C26.8597895,20.8724211 26.8522105,21.2134737 26.7991579,22.3654737 C26.7536842,23.4265263 26.5793684,24.0025263 26.4277895,24.3890526 C26.2307368,24.8968421 26.0033684,25.2606316 25.6244211,25.6395789 C25.2530526,26.0185263 24.8968421,26.2534737 24.3966316,26.4505263 C24.0176842,26.6021053 23.4492632,26.7764211 22.4109474,26.8218947 C21.2816842,26.8749474 20.9406316,26.8825263 18.0833684,26.8825263 C15.2261053,26.8825263 14.8850526,26.8749474 13.7557895,26.8218947 C12.7098947,26.7764211 12.1490526,26.5945263 11.7701053,26.4505263 C11.2698947,26.2534737 10.9136842,26.0185263 10.5423158,25.6395789 C10.1709474,25.2606316 9.936,24.8968421 9.73894737,24.3890526 C9.59494737,24.0025263 9.42063158,23.4265263 9.36757895,22.3654737 C9.31452632,21.2134737 9.30694737,20.8724211 9.30694737,17.9621053 C9.30694737,15.0517895 9.31452632,14.7107368 9.36757895,13.5587368 C9.41305263,12.4976842 9.58736842,11.9216842 9.73894737,11.5351579 C9.936,11.0273684 10.1633684,10.6635789 10.5423158,10.2846316 C10.9136842,9.90568421 11.2698947,9.67073684 11.7701053,9.47368421 C12.1490526,9.32210526 12.7174737,9.14778947 13.7557895,9.10231579 C14.8850526,9.05684211 15.2261053,9.04168421 18.0833684,9.04168421 L18.0833684,9.04168421 Z M18.0833684,7.07873684 C15.1730526,7.07873684 14.8092632,7.09389474 13.6724211,7.14694737 C12.5355789,7.2 11.7549474,7.38189474 11.0728421,7.65473684 C10.368,7.93515789 9.76926316,8.30652632 9.17810526,8.91284211 C8.57936842,9.51915789 8.21557895,10.1254737 7.94273684,10.8454737 C7.67747368,11.5351579 7.49557895,12.3309474 7.44252632,13.4905263 C7.38947368,14.6501053 7.38189474,15.0214737 7.38189474,17.9772632 C7.38189474,20.9330526 7.39705263,21.3044211 7.44252632,22.464 C7.49557895,23.6235789 7.67747368,24.4117895 7.94273684,25.1090526 C8.21557895,25.8214737 8.57936842,26.4353684 9.17810526,27.0416842 C9.77684211,27.648 10.368,28.0193684 11.0728421,28.2997895 C11.7549474,28.5726316 12.5355789,28.7545263 13.6724211,28.8075789 C14.8168421,28.8606316 15.1806316,28.8757895 18.0833684,28.8757895 C20.9861053,28.8757895 21.3574737,28.8606316 22.4943158,28.8075789 C23.6311579,28.7545263 24.4117895,28.5726316 25.0938947,28.2997895 C25.7987368,28.0193684 26.3974737,27.648 26.9886316,27.0416842 C27.5873684,26.4353684 27.9511579,25.8290526 28.224,25.1090526 C28.4892632,24.4193684 28.6711579,23.6235789 28.7242105,22.464 C28.7772632,21.3044211 28.7848421,20.9330526 28.7848421,17.9772632 C28.7848421,15.0214737 28.7696842,14.6501053 28.7242105,13.4905263 C28.6711579,12.3309474 28.4892632,11.5427368 28.224,10.8454737 C27.9511579,10.1330526 27.5873684,9.51915789 26.9886316,8.91284211 C26.3898947,8.30652632 25.7987368,7.93515789 25.0938947,7.65473684 C24.4117895,7.38189474 23.6311579,7.2 22.4943158,7.14694737 C21.3574737,7.09389474 20.9861053,7.07873684 18.0833684,7.07873684 L18.0833684,7.07873684 Z" id="Shape" fill="#FFFFFF"></path>
                    <path d="M18.0833684,12.3764211 C15.0442105,12.3764211 12.5886316,14.8774737 12.5886316,17.9696842 C12.5886316,21.0618947 15.0517895,23.5629474 18.0833684,23.5629474 C21.1149474,23.5629474 23.5781053,21.0618947 23.5781053,17.9696842 C23.5781053,14.8774737 21.1149474,12.3764211 18.0833684,12.3764211 Z M18.0833684,21.6 C16.1128421,21.6 14.5136842,19.9781053 14.5136842,17.9696842 C14.5136842,15.9612632 16.1128421,14.3393684 18.0833684,14.3393684 C20.0538947,14.3393684 21.6530526,15.9612632 21.6530526,17.9696842 C21.6530526,19.9781053 20.0538947,21.6 18.0833684,21.6 Z" id="Shape" fill="#FFFFFF"></path>
                    <ellipse id="Oval" fill="#FFFFFF" cx="23.7978947" cy="12.1566316" rx="1.28084211" ry="1.30357895"></ellipse>
                </g>
            </g>
        </g>
    </g>
</svg>