<?xml version="1.0" encoding="UTF-8"?>
<svg width="36px" height="36px" viewBox="0 0 36 36" version="1.1" xmlns="http://www.w3.org/2000/svg" xmlns:xlink="http://www.w3.org/1999/xlink">
    <!-- Generator: Sketch 43.2 (39069) - http://www.bohemiancoding.com/sketch -->
    <title>Pinterest</title>
    <desc>Created with Sketch.</desc>
    <defs></defs>
    <g id="Symbols" stroke="none" stroke-width="1" fill="none" fill-rule="evenodd">
        <g id="Pinterest" fill-rule="nonzero">
            <ellipse id="Oval" fill="#CB2027" cx="18.0003186" cy="18.0025796" rx="18" ry="18.0019424"></ellipse>
            <path d="M19.5158448,23.9326726 C18.1647297,23.828177 17.5970129,23.1581947 16.5374023,22.5149735 C15.9550306,25.5705133 15.2433138,28.4995752 13.135243,30.0297345 C12.4837386,25.4115398 14.0903581,21.9427965 14.8364819,18.2609204 C13.5646943,16.1200354 14.9894023,11.8108673 17.6718802,12.872708 C20.9733669,14.1782655 14.8135439,20.8331681 18.9487651,21.664354 C23.2658979,22.532177 25.028305,14.1734867 22.3509244,11.4546903 C18.4826766,7.52941593 11.0912076,11.3654867 12.000128,16.9846726 C12.2215439,18.3584071 13.6411545,18.7754336 12.5672076,20.6710088 C10.0914908,20.1227257 9.35301292,18.1701239 9.44795097,15.5669735 C9.60118991,11.3059115 13.2766943,8.32237168 16.9633492,7.90948673 C21.6258271,7.38764602 26.0018979,9.62155752 26.6059333,14.0071858 C27.2854731,18.9570265 24.5010483,24.3175221 19.5158448,23.9326726 L19.5158448,23.9326726 Z" id="Shape" fill="#F1F2F2"></path>
        </g>
    </g>
</svg>