<svg xmlns="http://www.w3.org/2000/svg" width="75" height="75" viewBox="0 0 75 75">
    <g fill="#DBDFE4" fill-rule="nonzero">
        <path d="M73.368 18.566H48.38V1.516C48.38.672 47.654 0 46.747 0H1.764C.857 0 .132.673.132 1.515v71.94c0 .84.725 1.514 1.632 1.514h71.604c.907 0 1.632-.673 1.632-1.515V20.082c0-.842-.725-1.516-1.632-1.516zm-28.253 1.516v51.872H3.395V3.031h41.72v17.05zm26.621 51.857H48.38V21.582h23.357v50.357z"/>
        <path d="M54.742 29.28h10.632c.906 0 1.631-.673 1.631-1.515 0-.842-.725-1.515-1.631-1.515H54.742c-.907 0-1.632.673-1.632 1.515 0 .827.725 1.516 1.632 1.516zM54.742 36.888h10.632c.906 0 1.631-.674 1.631-1.516 0-.841-.725-1.515-1.631-1.515H54.742c-.907 0-1.632.674-1.632 1.515 0 .842.725 1.516 1.632 1.516zM54.742 44.48h10.632c.906 0 1.631-.674 1.631-1.516s-.725-1.515-1.631-1.515H54.742c-.907 0-1.632.673-1.632 1.515 0 .842.725 1.516 1.632 1.516zM54.742 52.087h10.632c.906 0 1.631-.674 1.631-1.516 0-.841-.725-1.515-1.631-1.515H54.742c-.907 0-1.632.674-1.632 1.515 0 .842.725 1.516 1.632 1.516zM54.742 59.679h10.632c.906 0 1.631-.674 1.631-1.516s-.725-1.515-1.631-1.515H54.742c-.907 0-1.632.673-1.632 1.515 0 .827.725 1.516 1.632 1.516zM54.742 67.286h10.632c.906 0 1.631-.674 1.631-1.516 0-.841-.725-1.515-1.631-1.515H54.742c-.907 0-1.632.674-1.632 1.515 0 .842.725 1.516 1.632 1.516zM10.962 14.847c.906 0 1.631-.674 1.631-1.515V9.98c0-.842-.725-1.516-1.631-1.516-.907 0-1.632.674-1.632 1.516v3.352c0 .841.725 1.515 1.632 1.515zM19.83 14.847c.906 0 1.632-.674 1.632-1.515V9.98c0-.842-.726-1.516-1.632-1.516-.907 0-1.632.674-1.632 1.516v3.352c0 .841.725 1.515 1.632 1.515zM28.681 14.847c.907 0 1.632-.674 1.632-1.515V9.98c0-.842-.725-1.516-1.632-1.516-.906 0-1.632.674-1.632 1.516v3.352c0 .841.742 1.515 1.632 1.515zM37.55 14.847c.906 0 1.631-.674 1.631-1.515V9.98c0-.842-.725-1.516-1.632-1.516-.906 0-1.631.674-1.631 1.516v3.352c0 .841.725 1.515 1.631 1.515zM10.962 25.224c.906 0 1.631-.673 1.631-1.515v-3.367c0-.842-.725-1.515-1.631-1.515-.907 0-1.632.673-1.632 1.515v3.367c0 .827.725 1.515 1.632 1.515zM19.83 25.224c.906 0 1.632-.673 1.632-1.515v-3.367c0-.842-.726-1.515-1.632-1.515-.907 0-1.632.673-1.632 1.515v3.367c0 .827.725 1.515 1.632 1.515zM28.681 25.224c.907 0 1.632-.673 1.632-1.515v-3.367c0-.842-.725-1.515-1.632-1.515-.906 0-1.632.673-1.632 1.515v3.367c0 .827.742 1.515 1.632 1.515zM37.55 25.224c.906 0 1.631-.673 1.631-1.515v-3.367c0-.842-.725-1.515-1.632-1.515-.906 0-1.631.673-1.631 1.515v3.367c0 .827.725 1.515 1.631 1.515zM10.962 35.587c.906 0 1.631-.674 1.631-1.516V30.72c0-.841-.725-1.515-1.631-1.515-.907 0-1.632.674-1.632 1.515v3.352c0 .842.725 1.516 1.632 1.516zM19.83 35.587c.906 0 1.632-.674 1.632-1.516V30.72c0-.841-.726-1.515-1.632-1.515-.907 0-1.632.674-1.632 1.515v3.352c0 .842.725 1.516 1.632 1.516zM28.681 35.587c.907 0 1.632-.674 1.632-1.516V30.72c0-.841-.725-1.515-1.632-1.515-.906 0-1.632.674-1.632 1.515v3.352c0 .842.742 1.516 1.632 1.516zM37.55 35.587c.906 0 1.631-.674 1.631-1.516V30.72c0-.841-.725-1.515-1.632-1.515-.906 0-1.631.674-1.631 1.515v3.352c0 .842.725 1.516 1.631 1.516zM10.962 45.964c.906 0 1.631-.673 1.631-1.515v-3.352c0-.842-.725-1.515-1.631-1.515-.907 0-1.632.673-1.632 1.515v3.352c0 .827.725 1.515 1.632 1.515zM19.83 45.964c.906 0 1.632-.673 1.632-1.515v-3.352c0-.842-.726-1.515-1.632-1.515-.907 0-1.632.673-1.632 1.515v3.352c0 .827.725 1.515 1.632 1.515zM28.681 45.964c.907 0 1.632-.673 1.632-1.515v-3.352c0-.842-.725-1.515-1.632-1.515-.906 0-1.632.673-1.632 1.515v3.352c0 .827.742 1.515 1.632 1.515zM37.55 45.964c.906 0 1.631-.673 1.631-1.515v-3.352c0-.842-.725-1.515-1.632-1.515-.906 0-1.631.673-1.631 1.515v3.352c0 .827.725 1.515 1.631 1.515zM10.962 56.327c.906 0 1.631-.674 1.631-1.516V51.46c0-.842-.725-1.515-1.631-1.515-.907 0-1.632.673-1.632 1.515v3.352c0 .842.725 1.516 1.632 1.516zM19.83 56.327c.906 0 1.632-.674 1.632-1.516V51.46c0-.842-.726-1.515-1.632-1.515-.907 0-1.632.673-1.632 1.515v3.352c0 .842.725 1.516 1.632 1.516zM28.681 56.327c.907 0 1.632-.674 1.632-1.516V51.46c0-.842-.725-1.515-1.632-1.515-.906 0-1.632.673-1.632 1.515v3.352c0 .842.742 1.516 1.632 1.516zM37.55 56.327c.906 0 1.631-.674 1.631-1.516V51.46c0-.842-.725-1.515-1.632-1.515-.906 0-1.631.673-1.631 1.515v3.352c0 .842.725 1.516 1.631 1.516zM10.962 66.704c.906 0 1.631-.673 1.631-1.515V61.82c0-.841-.725-1.515-1.631-1.515-.907 0-1.632.674-1.632 1.515v3.368c0 .826.725 1.515 1.632 1.515zM19.83 66.704c.906 0 1.632-.673 1.632-1.515V61.82c0-.841-.726-1.515-1.632-1.515-.907 0-1.632.674-1.632 1.515v3.368c0 .826.725 1.515 1.632 1.515zM28.681 66.704c.907 0 1.632-.673 1.632-1.515V61.82c0-.841-.725-1.515-1.632-1.515-.906 0-1.632.674-1.632 1.515v3.368c0 .826.742 1.515 1.632 1.515zM37.55 66.704c.906 0 1.631-.673 1.631-1.515V61.82c0-.841-.725-1.515-1.632-1.515-.906 0-1.631.674-1.631 1.515v3.368c0 .826.725 1.515 1.631 1.515z"/>
    </g>
</svg>
