<?xml version="1.0" encoding="UTF-8"?>
<svg width="60px" height="60px" viewBox="0 0 60 60" version="1.1" xmlns="http://www.w3.org/2000/svg" xmlns:xlink="http://www.w3.org/1999/xlink">
    <!-- Generator: Sketch 44.1 (41455) - http://www.bohemiancoding.com/sketch -->
    <title>Channel</title>
    <desc>Created with Sketch.</desc>
    <defs></defs>
    <g id="Interface" stroke="none" stroke-width="1" fill="none" fill-rule="evenodd">
        <g id="Channel" fill-rule="nonzero" fill="#FFFFFF">
            <path d="M30.0031818,34.9508333 C27.3718182,34.9508333 25.2304545,32.7075 25.2304545,29.9508333 C25.2304545,27.1941667 27.3718182,24.9508333 30.0031818,24.9508333 C32.6345455,24.9508333 34.7759091,27.1941667 34.7759091,29.9508333 C34.7759091,32.7075 32.6345455,34.9508333 30.0031818,34.9508333 Z M30.0031818,28.2841667 C29.1281818,28.2841667 28.4122727,29.0341667 28.4122727,29.9508333 C28.4122727,30.8675 29.1281818,31.6175 30.0031818,31.6175 C30.8781818,31.6175 31.5940909,30.8675 31.5940909,29.9508333 C31.5940909,29.0341667 30.8781818,28.2841667 30.0031818,28.2841667 Z M23.2545455,38.6875 C22.8472727,38.6875 22.44,38.5241667 22.1281818,38.2008333 C20.0218182,36.0008333 18.8668182,33.0675 18.8668182,29.9508333 C18.8636364,26.8308333 20.0218182,23.9075 22.1281818,21.7008333 C22.7486364,21.0508333 23.7572727,21.0508333 24.3777273,21.7008333 C24.9918182,22.3441667 24.9918182,23.4075 24.3777273,24.0575 C22.8695455,25.6341667 22.0486364,27.7241667 22.0486364,29.9508333 C22.0486364,32.1741667 22.8759091,34.2675 24.3777273,35.8441667 C24.9918182,36.4941667 24.9918182,37.5575 24.3777273,38.2008333 C24.0690909,38.5241667 23.6618182,38.6875 23.2545455,38.6875 L23.2545455,38.6875 Z M36.7518182,38.6875 C36.3445455,38.6875 35.9372727,38.5241667 35.6254545,38.2008333 C35.005,37.5575 35.005,36.4941667 35.6254545,35.8441667 C37.1304545,34.2675 37.9481818,32.1775 37.9481818,29.9508333 C37.9481818,27.7275 37.1145455,25.6341667 35.6254545,24.0575 C35.005,23.4075 35.005,22.3441667 35.6254545,21.7008333 C36.2395455,21.0508333 37.2545455,21.0508333 37.875,21.7008333 C39.9718182,23.8975 41.13,26.8308333 41.13,29.9508333 C41.1331818,33.0708333 39.9718182,35.9941667 37.875,38.2008333 C37.5663636,38.5241667 37.1590909,38.6875 36.7518182,38.6875 L36.7518182,38.6875 Z M18.7554545,43.4008333 C18.3481818,43.4008333 17.9409091,43.2375 17.6290909,42.9141667 C14.3231818,39.4475 12.5031818,34.8441667 12.5,29.9508333 C12.5,25.0541667 14.3168182,20.4508333 17.6290909,16.9875 C18.2495454,16.3375 19.2581818,16.3375 19.8786364,16.9875 C20.4990909,17.6375 20.4990909,18.6941667 19.8786364,19.3441667 C17.1677273,22.1808333 15.6818182,25.9375 15.6818182,29.9508333 C15.6818182,33.9641667 17.1740909,37.7241667 19.8786364,40.5575 C20.4990909,41.2075 20.4990909,42.2641667 19.8786364,42.9141667 C19.57,43.2375 19.1627273,43.4008333 18.7554545,43.4008333 L18.7554545,43.4008333 Z M41.2509091,43.4008333 C40.8436364,43.4008333 40.4363636,43.2375 40.1245455,42.9141667 C39.5040909,42.2641667 39.5040909,41.2075 40.1245455,40.5575 C42.8322727,37.7208333 44.3118182,33.9608333 44.3118182,29.9508333 C44.3118182,25.9408333 42.8195455,22.1775 40.1245455,19.3441667 C39.5040909,18.6941667 39.5040909,17.6375 40.1245455,16.9875 C40.7386364,16.3375 41.7536364,16.3375 42.3740909,16.9875 C45.6736364,20.4475 47.4936364,25.0541667 47.4936364,29.9508333 C47.4968182,34.8475 45.6736364,39.4508333 42.3740909,42.9141667 C42.0654545,43.2375 41.6581818,43.4008333 41.2509091,43.4008333 L41.2509091,43.4008333 Z" id="Combined-Shape"></path>
        </g>
    </g>
</svg>