<?xml version="1.0" encoding="UTF-8"?>
<svg width="60px" height="60px" viewBox="0 0 60 60" version="1.1" xmlns="http://www.w3.org/2000/svg" xmlns:xlink="http://www.w3.org/1999/xlink">
    <!-- Generator: Sketch 44.1 (41455) - http://www.bohemiancoding.com/sketch -->
    <title>Group Chat</title>
    <desc>Created with Sketch.</desc>
    <defs></defs>
    <g id="Interface" stroke="none" stroke-width="1" fill="none" fill-rule="evenodd">
        <g id="Group-Chat" fill-rule="nonzero" fill="#FFFFFF">
            <g transform="translate(10.000000, 18.500000)">
                <path d="M10.917529,14.7538997 C10.1534602,14.6583575 9.36244437,14.6105864 8.57142857,14.6105864 C4.28571429,14.6105864 0,16.0144316 0,18.8174948 L0,20.9209489 L7.14285714,20.9209489 L7.14285714,19.6561268 C7.14285714,17.5949938 8.6240021,15.92364 10.917529,14.7538997 Z M12.8571429,8.34024258 C12.8571429,10.4436968 11.0714286,13.2483024 8.57142857,13.2483024 C6.07142857,13.2483024 4.28571429,10.661194 4.28571429,8.34024258 C4.28571429,6.01802914 6.20571429,4.13333418 8.57142857,4.13333418 C10.9375714,4.13333418 12.8571429,6.23678837 12.8571429,8.34024258 Z" id="Combined-Shape"></path>
                <path d="M25.7142857,6.02503327 C25.7142857,8.87088307 23.3333333,12.6653495 20,12.6653495 C16.6666667,12.6653495 14.2857143,9.16514394 14.2857143,6.02503327 C14.2857143,2.88321509 16.8457143,0.333333667 20,0.333333667 C23.1548571,0.333333667 25.7142857,3.17918347 25.7142857,6.02503327 Z M8.57142857,19.9723323 C8.57142857,16.1799529 14.2857143,14.2806327 20,14.2806327 C25.7142857,14.2806327 31.4285714,16.1778659 31.4285714,19.9723323 L31.4285714,22.8181822 L8.57142857,22.8181822 L8.57142857,19.9723323 Z" id="Fill-7"></path>
                <path d="M32.8571429,20.9209489 L40,20.9209489 L40,18.8174948 C40,16.0144316 35.7142857,14.6105864 31.4285714,14.6105864 C30.6380382,14.6105864 29.847505,14.6582992 29.0838694,14.753725 C31.3766,15.9231607 32.8571429,17.5942787 32.8571429,19.6561268 L32.8571429,20.9209489 Z M27.1428571,8.34024258 C27.1428571,6.23678837 29.0624286,4.13333418 31.4285714,4.13333418 C33.7942857,4.13333418 35.7142857,6.01802914 35.7142857,8.34024258 C35.7142857,10.661194 33.9285714,13.2483024 31.4285714,13.2483024 C28.9285714,13.2483024 27.1428571,10.4436968 27.1428571,8.34024258 Z" id="Combined-Shape"></path>
            </g>
        </g>
    </g>
</svg>