<?xml version="1.0" encoding="UTF-8"?>
<svg width="60px" height="60px" viewBox="0 0 60 60" version="1.1" xmlns="http://www.w3.org/2000/svg" xmlns:xlink="http://www.w3.org/1999/xlink">
    <!-- Generator: Sketch 44.1 (41455) - http://www.bohemiancoding.com/sketch -->
    <title>Inquiries</title>
    <desc>Created with Sketch.</desc>
    <defs></defs>
    <g id="Interface" stroke="none" stroke-width="1" fill="none" fill-rule="evenodd">
        <g id="Inquiries" fill-rule="nonzero" fill="#FFFFFF">
            <g transform="translate(12.000000, 15.000000)" id="Shape">
                <g>
                    <path d="M6.66506641,0.13333321 L29.3524891,0.13333321 C30.0491878,0.13333321 30.8650075,0.63774166 31.117035,1.39382413 L35.1508887,15.7629257 L35.1508887,28.618802 C35.1508887,29.3155007 34.5860361,29.8799999 33.8900443,29.8799999 L2.12715771,29.8799999 C1.43116595,29.8799999 0.86666679,29.3151472 0.86666679,28.618802 L0.86666679,15.7629257 L4.90016704,1.39382413 C5.15254801,0.63774166 5.96872118,0.13333321 6.66506641,0.13333321 Z M30.6136869,16.2669807 C32.6299068,16.2669807 31.8738244,14.4603713 31.8738244,14.4603713 L29.1004616,3.3895425 C29.1004616,3.3895425 28.849141,2.40193408 27.8403241,2.40193408 L8.4292588,2.40193408 C7.42114888,2.40193408 7.16912139,3.41075099 7.16912139,3.41075099 L4.14408457,14.5024348 C4.14408457,14.5024348 3.38764863,16.2669807 5.40457549,16.2669807 L11.4546491,16.2669807 C11.4546491,16.2669807 12.2107316,16.3302527 12.2107316,17.5271182 L12.2220428,17.4991937 C12.3408103,20.5970463 14.8826471,23.0731368 18.0091312,23.0731368 C21.1359688,23.0731368 23.6774521,20.5970463 23.7958662,17.4991937 L23.8068239,17.5271182 C23.8068239,16.3306062 24.5632598,16.2669807 24.5632598,16.2669807 L30.6136869,16.2669807 Z"></path>
                </g>
            </g>
        </g>
    </g>
</svg>