<svg xmlns="http://www.w3.org/2000/svg" width="22" height="22" viewBox="0 0 22 22">
    <g fill="#9DA0A4" fill-rule="nonzero">
        <path d="M11 0C4.935 0 0 4.935 0 11s4.935 11 11 11 11-4.935 11-11S17.065 0 11 0zm0 20.81a9.78 9.78 0 0 1-6.914-2.857 9.864 9.864 0 0 1-1.779-2.41A9.75 9.75 0 0 1 1.19 11c0-5.41 4.401-9.81 9.81-9.81 2.567 0 4.905.99 6.655 2.608a9.863 9.863 0 0 1 2.197 2.973 9.752 9.752 0 0 1 .96 4.229c0 5.41-4.402 9.81-9.811 9.81z"/>
        <circle cx="7.408" cy="8.547" r="1.189"/>
        <circle cx="14.766" cy="8.547" r="1.189"/>
        <path d="M10.979 17.094c2.3 0 4.505-1.176 5.768-3.13l-1-.645a5.698 5.698 0 0 1-5.402 2.55 5.704 5.704 0 0 1-4.093-2.55l-.999.645a6.905 6.905 0 0 0 4.956 3.086c.257.03.514.044.77.044z"/>
    </g>
</svg>
