<?xml version="1.0" encoding="UTF-8"?>
<svg width="74px" height="20px" viewBox="0 0 74 20" version="1.1" xmlns="http://www.w3.org/2000/svg" xmlns:xlink="http://www.w3.org/1999/xlink">
    <!-- Generator: Sketch 42 (36781) - http://www.bohemiancoding.com/sketch -->
    <title>Jincor</title>
    <desc>Created with Sketch.</desc>
    <defs></defs>
    <g id="Symbols" stroke="none" stroke-width="1" fill="none" fill-rule="evenodd">
        <g id="Logo" transform="translate(0.000000, -2.000000)" fill="#222222">
            <path d="M0.29296875,15.4921875 C0.29296875,19.078125 2.70703125,21.3164062 6.50390625,21.3164062 C10.3828125,21.3164062 12.703125,19.1953125 12.703125,15.3984375 L12.703125,4.08984375 L8.4140625,4.08984375 L8.4140625,15.375 C8.4140625,16.875 7.72265625,17.6835938 6.45703125,17.6835938 C5.2265625,17.6835938 4.44140625,16.8398438 4.4296875,15.4921875 L0.29296875,15.4921875 Z M15.2460938,21 L19.40625,21 L19.40625,7.95703125 L15.2460938,7.95703125 L15.2460938,21 Z M17.3203125,6.87890625 C18.5039062,6.87890625 19.4648438,6.01171875 19.4648438,4.828125 C19.4648438,3.65625 18.5039062,2.77734375 17.3203125,2.77734375 C16.1484375,2.77734375 15.1875,3.65625 15.1875,4.828125 C15.1875,6.01171875 16.1484375,6.87890625 17.3203125,6.87890625 Z M21.515625,21 L25.6640625,21 L25.6640625,13.640625 C25.6640625,12.1640625 26.625,11.1210938 28.03125,11.1210938 C29.4609375,11.1210938 30.28125,12.0234375 30.28125,13.5351562 L30.28125,21 L34.4414062,21 L34.4414062,12.6445312 C34.4414062,9.5625 32.6953125,7.734375 29.7890625,7.734375 C27.796875,7.734375 26.3320312,8.66015625 25.6289062,10.40625 L25.546875,10.40625 L25.546875,7.95703125 L21.515625,7.95703125 L21.515625,21 Z M48.7617188,13.0664062 C48.6445312,9.84375 46.2773438,7.67578125 42.6328125,7.67578125 C38.5898438,7.67578125 36.0585938,10.2773438 36.0585938,14.4726562 C36.0585938,18.7148438 38.5898438,21.28125 42.65625,21.28125 C46.3007812,21.28125 48.6445312,19.2539062 48.7734375,15.9726562 L44.953125,15.9726562 C44.8007812,17.3320312 43.96875,18.1054688 42.703125,18.1054688 C41.1679688,18.1054688 40.2539062,16.8164062 40.2539062,14.4726562 C40.2539062,12.1757812 41.1679688,10.8398438 42.703125,10.8398438 C43.96875,10.8398438 44.8125,11.71875 44.953125,13.0664062 L48.7617188,13.0664062 Z M56.5898438,21.28125 C52.4765625,21.28125 49.9453125,18.7851562 49.9453125,14.4726562 C49.9453125,10.2421875 52.5351562,7.67578125 56.5898438,7.67578125 C60.65625,7.67578125 63.234375,10.21875 63.234375,14.4726562 C63.234375,18.796875 60.703125,21.28125 56.5898438,21.28125 Z M56.5898438,18.2226562 C58.1015625,18.2226562 59.0273438,16.875 59.0273438,14.4726562 C59.0273438,12.1289062 58.0898438,10.734375 56.5898438,10.734375 C55.078125,10.734375 54.1523438,12.1289062 54.1523438,14.4726562 C54.1523438,16.875 55.0664062,18.2226562 56.5898438,18.2226562 Z M64.9101562,21 L69.0585938,21 L69.0585938,14.109375 C69.0585938,12.28125 70.0429688,11.2734375 71.8242188,11.2734375 C72.2929688,11.2734375 72.8085938,11.3554688 73.1601562,11.5078125 L73.1601562,7.9453125 C72.8789062,7.8515625 72.4921875,7.78125 72.1054688,7.78125 C70.5585938,7.78125 69.4921875,8.671875 69.0234375,10.40625 L68.9414062,10.40625 L68.9414062,7.95703125 L64.9101562,7.95703125 L64.9101562,21 Z" id="Jincor"></path>
        </g>
    </g>
</svg>