<svg xmlns="http://www.w3.org/2000/svg" width="89" height="30" viewBox="0 0 89 30">
    <defs>
        <linearGradient id="a" x1="0%" x2="87.626%" y1="0%" y2="62.835%">
            <stop offset="0%" stop-color="#C8EFFE"/>
            <stop offset="100%" stop-color="#57CCFE"/>
        </linearGradient>
        <linearGradient id="b" x1="7.073%" x2="78.63%" y1="3.665%" y2="16.513%">
            <stop offset="0%" stop-color="#028EFF"/>
            <stop offset="100%" stop-color="#004FFF"/>
        </linearGradient>
        <linearGradient id="c" x1="50%" x2="0%" y1="0%" y2="100%">
            <stop offset="0%" stop-color="#23C6FF"/>
            <stop offset="100%" stop-color="#1397FF"/>
        </linearGradient>
    </defs>
    <g fill="none" fill-rule="evenodd">
        <path fill="#333" d="M39.002 9.781h2.93v9.844c0 .905-.2 1.704-.6 2.397a4.076 4.076 0 0 1-1.695 1.607c-.73.378-1.553.566-2.471.566-1.504 0-2.676-.382-3.516-1.147-.84-.765-1.26-1.847-1.26-3.247h2.95c0 .696.146 1.21.44 1.543.292.332.755.498 1.386.498.56 0 1.006-.192 1.338-.576.332-.384.498-.931.498-1.641V9.781zM47.234 24h-2.832V13.434h2.832V24zm-2.998-13.3c0-.424.142-.772.425-1.046.283-.273.67-.41 1.157-.41.482 0 .866.137 1.153.41.286.274.43.622.43 1.045 0 .43-.145.781-.435 1.055-.29.273-.672.41-1.148.41-.475 0-.857-.137-1.147-.41-.29-.274-.435-.625-.435-1.055zm7.92 2.734l.088 1.22c.755-.944 1.768-1.416 3.037-1.416 1.12 0 1.953.33 2.5.987.547.657.827 1.64.84 2.949V24H55.8v-6.758c0-.599-.13-1.033-.39-1.304-.261-.27-.694-.405-1.3-.405-.794 0-1.39.339-1.787 1.016V24H49.5V13.434h2.656zm12.998 8.486c.521 0 .944-.143 1.27-.43.325-.286.495-.667.508-1.142h2.646a3.62 3.62 0 0 1-.586 1.967 3.866 3.866 0 0 1-1.577 1.387 4.936 4.936 0 0 1-2.212.493c-1.51 0-2.702-.48-3.574-1.44-.872-.96-1.309-2.287-1.309-3.98v-.185c0-1.628.433-2.927 1.3-3.897.865-.97 2.053-1.455 3.564-1.455 1.321 0 2.38.376 3.178 1.128.798.752 1.203 1.753 1.216 3.003h-2.646c-.013-.547-.183-.991-.508-1.333-.326-.342-.755-.513-1.29-.513-.657 0-1.153.24-1.488.718-.336.479-.503 1.255-.503 2.33v.292c0 1.088.166 1.869.498 2.344.332.475.836.713 1.513.713zm5.596-3.3c0-1.049.202-1.983.605-2.804a4.432 4.432 0 0 1 1.744-1.904c.758-.45 1.639-.674 2.641-.674 1.426 0 2.59.436 3.491 1.309.902.872 1.405 2.057 1.51 3.555l.019.722c0 1.621-.453 2.922-1.358 3.902s-2.119 1.47-3.642 1.47c-1.524 0-2.74-.489-3.648-1.466-.908-.976-1.362-2.304-1.362-3.984v-.127zm2.822.204c0 1.003.19 1.77.567 2.3.377.53.918.796 1.62.796.684 0 1.218-.262 1.602-.786.384-.524.576-1.363.576-2.515 0-.983-.192-1.745-.576-2.285-.384-.54-.924-.81-1.62-.81-.69 0-1.225.268-1.602.805-.378.537-.567 1.369-.567 2.495zm14.864-2.744a7.667 7.667 0 0 0-1.016-.078c-1.068 0-1.768.361-2.1 1.084V24h-2.822V13.434h2.666l.078 1.26c.567-.97 1.351-1.456 2.354-1.456.312 0 .605.043.879.127l-.04 2.715z"/>
        <path fill="url(#a)" d="M28.199 5.661L7.486.001l8.568 10.736z" transform="translate(-.108 .067)"/>
        <path fill="url(#b)" d="M18.966 20.468H0l14.751 9.387z" transform="translate(-.108 .067)"/>
        <path fill="url(#c)" d="M28.199 5.658l-12.145 5.075-1.303 19.122z" transform="translate(-.108 .067)"/>
    </g>
</svg>
