<svg width="40" height="40" viewBox="0 0 16 16" xmlns="http://www.w3.org/2000/svg">
  <title>E14B8015-9961-47BD-B147-F70A5B8B195D</title>
  <path d="M8.001 10.38c-1.052 0-1.909-.897-1.909-2 0-1.102.857-2 1.91-2 1.052 0 1.908.898 1.908 2 0 1.103-.856 2-1.909 2zm0-2.666c.35 0 .637.3.637.666 0 .367-.287.667-.637.667-.35 0-.636-.3-.636-.667 0-.366.286-.666.636-.666zm-2.7 4.161a.625.625 0 0 1-.45-.195 4.743 4.743 0 0 1-1.304-3.3 4.74 4.74 0 0 1 1.304-3.3.617.617 0 0 1 .9 0 .695.695 0 0 1 0 .943A3.385 3.385 0 0 0 4.82 8.38c0 .89.331 1.727.932 2.358a.695.695 0 0 1 0 .942.62.62 0 0 1-.45.195zm5.4 0a.625.625 0 0 1-.45-.195.69.69 0 0 1 0-.942c.601-.631.928-1.467.928-2.358a3.42 3.42 0 0 0-.929-2.357.69.69 0 0 1 0-.943.617.617 0 0 1 .9 0 4.752 4.752 0 0 1 1.302 3.3 4.754 4.754 0 0 1-1.302 3.3.62.62 0 0 1-.45.195zM3.502 13.76a.625.625 0 0 1-.45-.194C1.729 12.179 1.002 10.338 1 8.38c0-1.958.727-3.8 2.052-5.185a.617.617 0 0 1 .9 0 .69.69 0 0 1 0 .943c-1.085 1.134-1.68 2.637-1.68 4.242 0 1.606.598 3.11 1.68 4.243a.69.69 0 0 1 0 .943.62.62 0 0 1-.45.194zm8.998 0a.625.625 0 0 1-.45-.194.69.69 0 0 1 0-.943c1.083-1.135 1.675-2.639 1.675-4.243a6.12 6.12 0 0 0-1.675-4.242.69.69 0 0 1 0-.943.617.617 0 0 1 .9 0c1.32 1.384 2.047 3.227 2.047 5.185.002 1.959-.728 3.8-2.047 5.186a.62.62 0 0 1-.45.194z" fill="#FFF" fill-rule="evenodd"/>
</svg>