<svg width="40" height="40" viewBox="0 0 30 30" xmlns="http://www.w3.org/2000/svg"><title>7A79CE0E-A8D1-4482-8613-90A0544E6CA8</title><path d="M24.46 15.95h-4.538s-.567.048-.567.945l-.008-.02a4.345 4.345 0 0 1-4.34 4.18 4.345 4.345 0 0 1-4.34-4.18l-.009.02c0-.897-.567-.945-.567-.945H5.553c-1.512 0-.945-1.323-.945-1.323l2.269-8.319s.189-.757.945-.757H22.38c.757 0 .945.741.945.741l2.08 8.303s.567 1.355-.945 1.355zM6.5 3.85h17.015c.523 0 1.135.378 1.324.945l3.025 10.777v9.642a.946.946 0 0 1-.945.946H3.095a.946.946 0 0 1-.945-.946v-9.642L5.175 4.795c.19-.567.802-.945 1.324-.945z" fill="#FFF" fill-rule="evenodd"/></svg>