<?xml version="1.0" encoding="UTF-8"?>
<svg width="36px" height="36px" viewBox="0 0 36 36" version="1.1" xmlns="http://www.w3.org/2000/svg" xmlns:xlink="http://www.w3.org/1999/xlink">
    <!-- Generator: Sketch 44.1 (41455) - http://www.bohemiancoding.com/sketch -->
    <title>Close Medium Grey Copy</title>
    <desc>Created with Sketch.</desc>
    <defs></defs>
    <g id="Symbols" stroke="none" stroke-width="1" fill="none" fill-rule="evenodd">
        <g id="Close-Medium-Grey-Copy" fill-rule="nonzero" fill="#333333">
            <path d="M16.5866167,17.9999959 C16.5866167,17.9999959 11.1766329,23.4099796 8.31870437,26.2679082 C7.89470997,26.6919026 7.89461137,27.2571409 8.31870437,27.6812264 C8.74279736,28.1053119 9.30802822,28.1052208 9.73202262,27.6812264 C12.5921436,24.8211054 17.9999349,19.4133141 17.9999349,19.4133141 C17.9999349,19.4133141 23.4062373,24.8196165 26.2678472,27.6812264 C26.6918416,28.1052208 27.254936,28.1074484 27.6811655,27.6812264 C28.107395,27.2550045 28.1051599,26.6919026 27.6811655,26.2679082 C24.8224049,23.4091981 19.4132532,17.9999959 19.4132532,17.9999959 C19.4132532,17.9999959 24.8219075,12.5913415 27.6811628,9.73208624 C28.1051626,9.30808645 28.1031047,8.74481492 27.6811628,8.31876798 C27.2592209,7.89272105 26.6918443,7.8947682 26.2678445,8.31876798 C23.441208,11.1454045 17.9999349,16.5866776 17.9999349,16.5866776 C17.9999349,16.5866776 12.5882613,11.175004 9.73202262,8.31876529 C9.30802822,7.89477089 8.74458723,7.89665936 8.31870437,8.31876529 C7.8928215,8.74087122 7.89470997,9.30808914 8.31870437,9.73208354 C11.1769298,12.5903089 16.5866167,17.9999959 16.5866167,17.9999959 Z" id="Shape"></path>
        </g>
    </g>
</svg>
