<?xml version="1.0" encoding="UTF-8"?>
<svg width="25px" height="25px" viewBox="0 0 25 25" version="1.1" xmlns="http://www.w3.org/2000/svg" xmlns:xlink="http://www.w3.org/1999/xlink">
    <!-- Generator: Sketch 44.1 (41455) - http://www.bohemiancoding.com/sketch -->
    <title>Messenger Icons/Search</title>
    <desc>Created with Sketch.</desc>
    <defs></defs>
    <g id="Symbols" stroke="none" stroke-width="1" fill="none" fill-rule="evenodd">
        <g id="Messenger-Icons/Search" fill-rule="nonzero" fill="#9DA0A4">
            <path d="M21.5350043,19.2895746 L17.4073516,15.1619978 C17.385415,15.1400612 17.3596831,15.1247283 17.3367597,15.1043098 C18.1489461,13.8722914 18.6229745,12.3975279 18.6229745,10.8115632 C18.6229745,6.49733533 15.1256392,3 10.8114873,3 C6.49733533,3 3,6.49733533 3,10.8114873 C3,15.1255633 6.49725942,18.6229745 10.8114114,18.6229745 C12.397452,18.6229745 13.8721396,18.1489461 15.104158,17.3367597 C15.1245765,17.3596072 15.1398335,17.3853391 15.1617701,17.4072757 L19.2894987,21.5350043 C19.9095689,22.1549986 20.9148583,22.1549986 21.5350043,21.5350043 C22.1549986,20.9149342 22.1549986,19.9096448 21.5350043,19.2895746 Z M10.8114873,15.9149781 C7.99282096,15.9149781 5.70792052,13.6300777 5.70792052,10.8114873 C5.70792052,7.99282096 7.99289686,5.70792052 10.8114873,5.70792052 C13.6300018,5.70792052 15.9149781,7.99289686 15.9149781,10.8114873 C15.9149781,13.6300777 13.6300018,15.9149781 10.8114873,15.9149781 Z" id="Shape"></path>
        </g>
    </g>
</svg>
